<svg width="117" height="23" viewBox="0 0 117 23" fill="none" xmlns="http://www.w3.org/2000/svg">
<path d="M4.78719 3.09579V22H0.995483V3.09579H4.78719ZM16.848 6.77919C18.6355 6.77919 20.0799 7.34789 21.1813 8.48539C22.2827 9.60489 22.8334 11.1757 22.8334 13.1979V22H19.0417V13.7125C19.0417 12.5208 18.7438 11.609 18.148 10.9771C17.5521 10.3271 16.7396 10.0021 15.7105 10.0021C14.6632 10.0021 13.8327 10.3271 13.2188 10.9771C12.623 11.609 12.3251 12.5208 12.3251 13.7125V22H8.53339V6.99579H12.3251V8.86459C12.8306 8.21459 13.4716 7.70899 14.248 7.34789C15.0424 6.96869 15.9091 6.77919 16.848 6.77919ZM33.3182 10.1104H30.6911V22H26.8453V10.1104H25.1391V6.99579H26.8453V6.23749C26.8453 4.39579 27.3689 3.04169 28.4161 2.17499C29.4634 1.30829 31.0432 0.902093 33.1557 0.956293V4.15209C32.2349 4.13399 31.5939 4.28749 31.2328 4.61249C30.8717 4.93749 30.6911 5.52429 30.6911 6.37289V6.99579H33.3182V10.1104ZM37.6983 5.20829C37.0303 5.20829 36.4705 5.00069 36.0192 4.58539C35.5858 4.15209 35.3692 3.61939 35.3692 2.98749C35.3692 2.35559 35.5858 1.83189 36.0192 1.41669C36.4705 0.983294 37.0303 0.766693 37.6983 0.766693C38.3664 0.766693 38.9171 0.983294 39.3504 1.41669C39.8018 1.83189 40.0275 2.35559 40.0275 2.98749C40.0275 3.61939 39.8018 4.15209 39.3504 4.58539C38.9171 5.00069 38.3664 5.20829 37.6983 5.20829ZM39.5671 6.99579V22H35.7754V6.99579H39.5671ZM51.628 6.77919C53.415 6.77919 54.86 7.34789 55.961 8.48539C57.063 9.60489 57.613 11.1757 57.613 13.1979V22H53.822V13.7125C53.822 12.5208 53.524 11.609 52.928 10.9771C52.332 10.3271 51.52 10.0021 50.49 10.0021C49.443 10.0021 48.613 10.3271 47.999 10.9771C47.403 11.609 47.105 12.5208 47.105 13.7125V22H43.3133V6.99579H47.105V8.86459C47.61 8.21459 48.251 7.70899 49.028 7.34789C49.822 6.96869 50.689 6.77919 51.628 6.77919ZM63.142 5.20829C62.474 5.20829 61.914 5.00069 61.463 4.58539C61.029 4.15209 60.813 3.61939 60.813 2.98749C60.813 2.35559 61.029 1.83189 61.463 1.41669C61.914 0.983294 62.474 0.766693 63.142 0.766693C63.81 0.766693 64.361 0.983294 64.794 1.41669C65.245 1.83189 65.471 2.35559 65.471 2.98749C65.471 3.61939 65.245 4.15209 64.794 4.58539C64.361 5.00069 63.81 5.20829 63.142 5.20829ZM65.011 6.99579V22H61.219V6.99579H65.011ZM72.223 18.8854H78.913V22H67.917V18.9396L74.471 10.1104H67.944V6.99579H78.832V10.0563L72.223 18.8854ZM80.874 14.4437C80.874 12.9271 81.172 11.5819 81.768 10.4083C82.381 9.23469 83.203 8.33189 84.232 7.69999C85.279 7.06809 86.444 6.75209 87.726 6.75209C88.845 6.75209 89.82 6.97779 90.651 7.42919C91.5 7.88059 92.177 8.44929 92.682 9.13539V6.99579H96.501V22H92.682V19.8063C92.195 20.5104 91.518 21.0972 90.651 21.5667C89.802 22.0181 88.818 22.2438 87.699 22.2438C86.435 22.2438 85.279 21.9188 84.232 21.2688C83.203 20.6188 82.381 19.7069 81.768 18.5333C81.172 17.3417 80.874 15.9785 80.874 14.4437ZM92.682 14.4979C92.682 13.5771 92.502 12.7917 92.14 12.1417C91.779 11.4736 91.292 10.9681 90.678 10.625C90.064 10.2639 89.405 10.0833 88.701 10.0833C87.997 10.0833 87.347 10.2549 86.751 10.5979C86.155 10.941 85.668 11.4465 85.288 12.1146C84.927 12.7646 84.747 13.541 84.747 14.4437C84.747 15.3465 84.927 16.141 85.288 16.8271C85.668 17.4951 86.155 18.0097 86.751 18.3708C87.365 18.7319 88.015 18.9125 88.701 18.9125C89.405 18.9125 90.064 18.741 90.678 18.3979C91.292 18.0368 91.779 17.5312 92.14 16.8812C92.502 16.2132 92.682 15.4188 92.682 14.4979ZM102.127 5.20829C101.459 5.20829 100.899 5.00069 100.448 4.58539C100.015 4.15209 99.798 3.61939 99.798 2.98749C99.798 2.35559 100.015 1.83189 100.448 1.41669C100.899 0.983294 101.459 0.766693 102.127 0.766693C102.795 0.766693 103.346 0.983294 103.779 1.41669C104.231 1.83189 104.456 2.35559 104.456 2.98749C104.456 3.61939 104.231 4.15209 103.779 4.58539C103.346 5.00069 102.795 5.20829 102.127 5.20829ZM103.996 6.99579V22H100.204V6.99579H103.996Z" fill="white"/>
<path d="M116.498 15.4893H111V20.9871H116.498V15.4893Z" fill="#3BAAFB"/>
</svg>
